# xmcd
#
# Track frame offsets:
#	150
#	20425
#	39258
#	60658
#	82060
#	101775
#	120471
#	135928
#	160521
#	182232
#	202127
#	223727
#	242223
#	264871
#	284294
#	304504
#	325765
#	343448
#
# Disc length: 4792 seconds
#
# Revision: 0
# Processed by: cddbd v1.5.1PL0 Copyright (c) Steve Scherf et al.
# Submitted via: audiograbber 1.81.02
#
DISCID=0312b612
DTITLE=郑源 - 我最火
DYEAR=2005
DGENRE=
TTITLE0=为什么相爱的人不能够在一起
TTITLE1=我不后悔
TTITLE2=两只蝴蝶
TTITLE3=别说我的眼泪你无所为
TTITLE4=披着羊皮的狼
TTITLE5=真的用心良苦
TTITLE6=水果情歌
TTITLE7=变了，散了，算了
TTITLE8=放手
TTITLE9=一万个理由
TTITLE10=不想
TTITLE11=味道
TTITLE12=别问我是谁 (2005年Life版)
TTITLE13=不想（现场Life版）
TTITLE14=为什么相爱的人不能够在一起 （伴奏版）
TTITLE15=2005 梁祝赞歌 （两只蝴蝶奥语版）
TTITLE16=讲不出告别 （奥语）
TTITLE17=大成小事 （奥语）
EXTD=
EXTT0=
EXTT1=
EXTT2=
EXTT3=
EXTT4=
EXTT5=
EXTT6=
EXTT7=
EXTT8=
EXTT9=
EXTT10=
EXTT11=
EXTT12=
EXTT13=
EXTT14=
EXTT15=
EXTT16=
EXTT17=
PLAYORDER=
